<svg id="Layer_1" data-name="Layer 1" xmlns="http://www.w3.org/2000/svg" viewBox="0 0 209.67 40.59"><defs><style>.cls-1{fill:#fff;}.cls-2{fill:#ff0052;}</style></defs><path class="cls-1" d="M77.8,30.68a12.5,12.5,0,0,1-4,2.58,14.16,14.16,0,0,1-10.12,0,12.26,12.26,0,0,1-4-2.64,12.06,12.06,0,0,1-2.67-4,13,13,0,0,1-1-5,13,13,0,0,1,1-5,11.86,11.86,0,0,1,2.67-4,12.23,12.23,0,0,1,4-2.63,14,14,0,0,1,10.1,0,12.11,12.11,0,0,1,4,2.59L74.3,16.06a7.35,7.35,0,0,0-2.47-1.95,7.09,7.09,0,0,0-3.17-.72,7.3,7.3,0,0,0-3,.62,7.22,7.22,0,0,0-2.4,1.74,8,8,0,0,0-1.6,2.62,9,9,0,0,0-.56,3.24,9.13,9.13,0,0,0,.56,3.27,8,8,0,0,0,1.6,2.62,7.51,7.51,0,0,0,2.4,1.74,7.3,7.3,0,0,0,3,.62,7,7,0,0,0,3.16-.72,7.34,7.34,0,0,0,2.46-2Z" transform="translate(-1 -1)"/><path class="cls-1" d="M95.07,33.71H91l-.24-1.92a6,6,0,0,1-2.19,1.65,7,7,0,0,1-2.87.59,6.76,6.76,0,0,1-3-.65,5.11,5.11,0,0,1-2.08-1.81,4.91,4.91,0,0,1,.06-5.34A5.48,5.48,0,0,1,83,24.39a7.62,7.62,0,0,1,3.27-.67,10,10,0,0,1,2.17.24,9.59,9.59,0,0,1,2,.68v-.42a2.65,2.65,0,0,0-.54-1.67,3.48,3.48,0,0,0-1.48-1.09,5.45,5.45,0,0,0-2.1-.38,6.93,6.93,0,0,0-2.2.35,6.8,6.8,0,0,0-2,1.06L80.86,19a15.78,15.78,0,0,1,3.29-1.26,13.23,13.23,0,0,1,3.23-.43,8.48,8.48,0,0,1,4.08.93,6.58,6.58,0,0,1,2.67,2.61,8.12,8.12,0,0,1,.94,4Zm-8.32-3.24a4,4,0,0,0,1.76-.4A3.7,3.7,0,0,0,89.87,29a2.63,2.63,0,0,0,.56-1.53v-.11a6,6,0,0,0-1.57-.75,5.86,5.86,0,0,0-1.75-.27,3.77,3.77,0,0,0-2.16.58,1.78,1.78,0,0,0-.49,2.57,2.18,2.18,0,0,0,.94.74A3.25,3.25,0,0,0,86.75,30.47Z" transform="translate(-1 -1)"/><path class="cls-1" d="M97.55,32.32l1-3.93a4.85,4.85,0,0,0,1.29,1,7.83,7.83,0,0,0,1.76.72,6.47,6.47,0,0,0,1.78.27A2.79,2.79,0,0,0,105,30a1.17,1.17,0,0,0,.57-1,1.19,1.19,0,0,0-.38-.89,3.43,3.43,0,0,0-1-.64c-.42-.19-.89-.38-1.41-.56-.7-.27-1.41-.58-2.15-.93a5.54,5.54,0,0,1-1.86-1.45A3.77,3.77,0,0,1,98,22a4.29,4.29,0,0,1,.76-2.52,4.88,4.88,0,0,1,2.14-1.66,8.27,8.27,0,0,1,3.23-.59,13.07,13.07,0,0,1,5.94,1.5l-1.3,3.66a6.45,6.45,0,0,0-1.29-.75,10.37,10.37,0,0,0-1.59-.56,5.9,5.9,0,0,0-1.46-.21,2,2,0,0,0-1.23.33,1,1,0,0,0-.44.88,1.08,1.08,0,0,0,.3.75,3.27,3.27,0,0,0,.91.63c.41.2.9.41,1.49.64a21,21,0,0,1,2.22,1,5.6,5.6,0,0,1,1.88,1.48,3.73,3.73,0,0,1,.77,2.46,4.38,4.38,0,0,1-.81,2.62,5.31,5.31,0,0,1-2.29,1.75,9,9,0,0,1-3.46.62A11.84,11.84,0,0,1,97.55,32.32Z" transform="translate(-1 -1)"/><path class="cls-1" d="M117.74,33.71h-4.62V17.6h4.62Zm-2.32-20a2.08,2.08,0,0,1-1.55-.64,2.27,2.27,0,0,1,0-3.12,2.11,2.11,0,0,1,1.55-.63A2.14,2.14,0,0,1,117,10a2.22,2.22,0,0,1,0,3.12A2.11,2.11,0,0,1,115.42,13.74Z" transform="translate(-1 -1)"/><path class="cls-1" d="M137.79,33.71h-4.63V25.33a4.37,4.37,0,0,0-.86-2.87,2.94,2.94,0,0,0-2.38-1,3.49,3.49,0,0,0-1.88.51,3.38,3.38,0,0,0-1.26,1.43,5.05,5.05,0,0,0-.45,2.22v8.12H121.7V17.6h3.74l.16,2.57A5.87,5.87,0,0,1,127.92,18a7.36,7.36,0,0,1,3.36-.74A6.21,6.21,0,0,1,136,19.13a7.13,7.13,0,0,1,1.75,5.1Z" transform="translate(-1 -1)"/><path class="cls-1" d="M149.05,34a9,9,0,0,1-4.45-1.09,8,8,0,0,1-3.08-3,8.27,8.27,0,0,1-1.12-4.31,8.22,8.22,0,0,1,1.12-4.29,8,8,0,0,1,3.08-3,9,9,0,0,1,4.45-1.1,8.84,8.84,0,0,1,4.42,1.1,8.06,8.06,0,0,1,3.06,3,8.22,8.22,0,0,1,1.12,4.29A8.27,8.27,0,0,1,156.53,30a8,8,0,0,1-3.06,3A8.83,8.83,0,0,1,149.05,34Zm0-4.14a3.64,3.64,0,0,0,2-.56,3.9,3.9,0,0,0,1.39-1.51,4.58,4.58,0,0,0,.51-2.18,4.48,4.48,0,0,0-.51-2.16A3.9,3.9,0,0,0,151,22a3.83,3.83,0,0,0-4,0,3.9,3.9,0,0,0-1.39,1.51,4.48,4.48,0,0,0-.51,2.16,4.58,4.58,0,0,0,.51,2.18A3.9,3.9,0,0,0,147,29.33,3.65,3.65,0,0,0,149,29.89Z" transform="translate(-1 -1)"/><path class="cls-1" d="M164.65,33.71h-4.06V9.54h4.62v9.89a7.47,7.47,0,0,1,2.36-1.58,7.68,7.68,0,0,1,6.87.51,7.78,7.78,0,0,1,2.73,3,9.16,9.16,0,0,1,1,4.31,9.15,9.15,0,0,1-1,4.3,7.67,7.67,0,0,1-2.73,3A7.18,7.18,0,0,1,170.5,34a7.41,7.41,0,0,1-5.63-2.51Zm4.67-3.82a4,4,0,0,0,2.1-.55,4,4,0,0,0,1.47-1.51,4.44,4.44,0,0,0,.54-2.19,4.34,4.34,0,0,0-.54-2.17A4,4,0,0,0,171.42,22a4.31,4.31,0,0,0-4.12-.05,3.93,3.93,0,0,0-1.46,1.37,4.18,4.18,0,0,0-.63,2V26a4.25,4.25,0,0,0,.63,2,4,4,0,0,0,1.45,1.38A4.05,4.05,0,0,0,169.32,29.89Z" transform="translate(-1 -1)"/><path class="cls-1" d="M195.94,31.9A11.1,11.1,0,0,1,189.38,34a9.84,9.84,0,0,1-4.75-1.14,8.62,8.62,0,0,1-3.31-3.08,8.07,8.07,0,0,1-1.22-4.4,7.87,7.87,0,0,1,4.11-7.07,8.68,8.68,0,0,1,4.32-1.07,8.18,8.18,0,0,1,4.39,1.17,8,8,0,0,1,3,3.26A10.46,10.46,0,0,1,197,26.52V27H185.08a4.38,4.38,0,0,0,.94,1.67,4.75,4.75,0,0,0,1.64,1.13,5.78,5.78,0,0,0,2.27.42,7.52,7.52,0,0,0,4.59-1.59Zm-11.07-7.22h7.81a4.18,4.18,0,0,0-.65-1.84,3.74,3.74,0,0,0-1.37-1.25,3.94,3.94,0,0,0-1.89-.45,3.77,3.77,0,0,0-3.24,1.72A4.28,4.28,0,0,0,184.87,24.68Z" transform="translate(-1 -1)"/><path class="cls-1" d="M210.67,33.29a9.78,9.78,0,0,1-3.6.74,6.35,6.35,0,0,1-3.18-.77,5.34,5.34,0,0,1-2.15-2.14,6.35,6.35,0,0,1-.77-3.18V21.72h-2.82V17.6h3.06v-4h4.38v4h4.46v4.12h-4.46V27.1a2.79,2.79,0,0,0,.73,2.06,2.45,2.45,0,0,0,1.8.73,3.48,3.48,0,0,0,1.92-.61Z" transform="translate(-1 -1)"/><path class="cls-1" d="M46.76,9.59c-.32,1.23-.66,2.46-1,3.7Q42.88,24.72,40,36.17a2.74,2.74,0,0,1-2.06,2.08v-.58q0-13,0-26a5.35,5.35,0,0,0-4.7-5.47,5.84,5.84,0,0,0-.84,0H24.12A21.82,21.82,0,0,1,25,3.54a2.49,2.49,0,0,1,2.9-1.3C32.57,3.41,37.27,4.61,42,5.8c.71.18,1.41.4,2.12.53a3.08,3.08,0,0,1,2.68,2.28Z" transform="translate(-1 -1)"/><path class="cls-1" d="M1,15.22a4,4,0,0,1,1.32-2C6.26,9.51,10.18,5.75,14.12,2a2.72,2.72,0,0,1,4.25.07L22.32,6.2h-7a5.36,5.36,0,0,0-5.49,5.47V26a3.73,3.73,0,0,1-.33-.3C7,23,4.36,20.29,1.82,17.57A6.81,6.81,0,0,1,1,16.12Z" transform="translate(-1 -1)"/><path class="cls-1" d="M12.53,25.22V11.81a2.7,2.7,0,0,1,3-2.93h16.8a2.7,2.7,0,0,1,2.95,2.94V38.68a2.69,2.69,0,0,1-2.92,2.91H15.46a2.7,2.7,0,0,1-2.93-2.92Zm11.35-4.13L23.69,21a3.61,3.61,0,0,0-4.86.4,4.51,4.51,0,0,0,.22,6.35c1.25,1.14,2.52,2.27,3.79,3.4a1.38,1.38,0,0,0,2.1,0c1.21-1.08,2.41-2.18,3.63-3.25A4.27,4.27,0,0,0,30.1,25a4.15,4.15,0,0,0-1.91-4.2A3.52,3.52,0,0,0,23.88,21.09Zm-3.66-5.88a1.34,1.34,0,0,0-2.68,0,1.34,1.34,0,1,0,2.68,0Zm10,20a1.34,1.34,0,1,0-1.34,1.33A1.36,1.36,0,0,0,30.23,35.25Z" transform="translate(-1 -1)"/><path class="cls-2" d="M23.88,21.09a3.52,3.52,0,0,1,4.31-.32A4.15,4.15,0,0,1,30.1,25a4.27,4.27,0,0,1-1.53,2.88c-1.22,1.07-2.42,2.17-3.63,3.25a1.38,1.38,0,0,1-2.1,0c-1.27-1.13-2.54-2.26-3.79-3.4a4.51,4.51,0,0,1-.22-6.35,3.61,3.61,0,0,1,4.86-.4Z" transform="translate(-1 -1)"/><path class="cls-2" d="M20.22,15.21a1.34,1.34,0,1,1-1.35-1.33A1.37,1.37,0,0,1,20.22,15.21Z" transform="translate(-1 -1)"/><path class="cls-2" d="M30.23,35.25a1.34,1.34,0,1,1-1.32-1.34A1.36,1.36,0,0,1,30.23,35.25Z" transform="translate(-1 -1)"/></svg>